# xmcd
#
# Track frame offsets:
#	150
#	22192
#	44280
#	59439
#	74660
#	99773
#	119881
#	140613
#	164008
#	187204
#	209924
#	238757
#	268810
#	285122
#	314634
#
# Disc length: 4364 seconds
#
# Revision: 0
# Processed by: cddbd v1.5.2PL0 Copyright (c) Steve Scherf et al.
# Submitted via: EZCDAudioConverter 1.3.4.1
#
DISCID=fd110a0f
DTITLE=V/A - 30: Real World At Womad 1/2
DYEAR=1900
DGENRE=
TTITLE0=Papa Wemba - Bakwetu
TTITLE1=Dub Colossus - Azmari Dub
TTITLE2=Blind Boys Of Alabama - People Get Ready
TTITLE3=Sheila Chandra - Ever So Lonely - Eyes - Ocean
TTITLE4=Ayub Ogada - Obiero
TTITLE5=Terem Quartet - The Legend Of The Old Mountain Man
TTITLE6=Portico Quartet - Spinner
TTITLE7=Samuel Yirga - Abet Abet [Punt Mix]
TTITLE8=Juju - Waide Nayde
TTITLE9=Ozomatli - Believe
TTITLE10=Remmy Ongala and Orchestre Super Matimila - Nasikitika
TTITLE11=Afro Celt Sound System - Shadowman
TTITLE12=Dengue Fever - Tiger Phone Card
TTITLE13=Joi - Fingers
TTITLE14=Drummers Of Burundi - Extract
EXTD=
EXTT0=
EXTT1=
EXTT2=
EXTT3=
EXTT4=
EXTT5=
EXTT6=
EXTT7=
EXTT8=
EXTT9=
EXTT10=
EXTT11=
EXTT12=
EXTT13=
EXTT14=
PLAYORDER=
